<svg xmlns="http://www.w3.org/2000/svg" width="40" height="34" viewBox="0 0 40 34">
    <g fill="#000" fill-rule="nonzero">
        <path d="M8.664 33.42C3.887 33.42 0 29.593 0 24.89c0-4.703 3.887-8.531 8.664-8.531 4.777 0 8.664 3.826 8.664 8.53 0 4.705-3.887 8.53-8.664 8.53zm0-15.87c-4.11 0-7.454 3.293-7.454 7.34 0 4.046 3.344 7.339 7.454 7.339 4.11 0 7.454-3.293 7.454-7.34 0-4.046-3.344-7.339-7.454-7.339zM16.723 10.158a.6.6 0 0 1-.605-.596c0-2.497-2.063-4.527-4.598-4.527-1.933 0-3.673 1.204-4.328 2.994a.607.607 0 0 1-.774.358.593.593 0 0 1-.364-.763c.826-2.261 3.023-3.781 5.465-3.781 3.203 0 5.808 2.565 5.808 5.718a.599.599 0 0 1-.604.597z"/>
        <path d="M16.723 25.486a.6.6 0 0 1-.605-.596V9.562a.6.6 0 0 1 .605-.595.6.6 0 0 1 .605.595V24.89a.6.6 0 0 1-.605.596zM1.022 22.972a.598.598 0 0 1-.215-.04.593.593 0 0 1-.35-.768L5.973 7.866a.608.608 0 0 1 .78-.346c.312.117.47.461.351.769L1.59 22.587a.606.606 0 0 1-.567.385z"/>
        <g>
            <path d="M15.432 3.577a.6.6 0 0 1-.605-.595c0-.97-.802-1.76-1.787-1.76-.751 0-1.428.468-1.682 1.164a.607.607 0 0 1-.774.358.592.592 0 0 1-.364-.762A3.004 3.004 0 0 1 13.04.031c1.653 0 2.997 1.323 2.997 2.95a.6.6 0 0 1-.605.596z"/>
            <path d="M15.432 6.131a.6.6 0 0 1-.605-.595V2.982a.6.6 0 0 1 .605-.596.6.6 0 0 1 .605.596v2.554a.6.6 0 0 1-.605.595zM9.939 5a.598.598 0 0 1-.215-.04.593.593 0 0 1-.351-.768l.812-2.105a.607.607 0 0 1 .78-.346c.312.117.47.461.35.769l-.811 2.106A.603.603 0 0 1 9.939 5z"/>
        </g>
        <g>
            <path d="M31.336 33.42c-4.777 0-8.664-3.827-8.664-8.53 0-4.703 3.886-8.531 8.664-8.531 4.779 0 8.664 3.828 8.664 8.53 0 4.704-3.887 8.53-8.664 8.53zm0-15.87c-4.11 0-7.454 3.293-7.454 7.34 0 4.046 3.344 7.339 7.454 7.339 4.11 0 7.454-3.293 7.454-7.34 0-4.046-3.344-7.339-7.454-7.339zM23.277 10.158a.6.6 0 0 1-.605-.596c0-3.153 2.605-5.718 5.808-5.718 2.443 0 4.639 1.519 5.465 3.781.114.31-.05.65-.364.763a.606.606 0 0 1-.774-.359c-.655-1.79-2.395-2.994-4.329-2.994-2.536 0-4.598 2.032-4.598 4.527a.598.598 0 0 1-.603.596z"/>
            <path d="M23.277 25.486a.6.6 0 0 1-.605-.596V9.562a.6.6 0 0 1 .605-.595.6.6 0 0 1 .605.595V24.89a.6.6 0 0 1-.605.596zM38.978 22.972a.603.603 0 0 1-.566-.384L32.895 8.29a.593.593 0 0 1 .35-.768.606.606 0 0 1 .781.345l5.518 14.298a.593.593 0 0 1-.566.807z"/>
            <g>
                <path d="M24.568 3.577a.6.6 0 0 1-.605-.595c0-1.628 1.344-2.951 2.997-2.951 1.26 0 2.394.783 2.82 1.951.114.31-.05.65-.364.762a.607.607 0 0 1-.774-.358 1.792 1.792 0 0 0-1.683-1.164c-.985 0-1.788.79-1.788 1.76a.598.598 0 0 1-.603.595z"/>
                <path d="M24.568 6.131a.6.6 0 0 1-.605-.595V2.982a.6.6 0 0 1 .605-.596.6.6 0 0 1 .605.596v2.554a.6.6 0 0 1-.605.595zM30.061 5a.603.603 0 0 1-.565-.384l-.812-2.105a.593.593 0 0 1 .351-.768.604.604 0 0 1 .78.345l.812 2.105a.593.593 0 0 1-.566.807z"/>
            </g>
        </g>
        <path d="M21.834 18.977h-6.068a.572.572 0 0 1-.566-.577c0-.318.254-.577.566-.577h5.502v-4.81h-5.502a.572.572 0 0 1-.566-.576c0-.318.254-.577.566-.577h6.068c.312 0 .566.259.566.577V18.4a.571.571 0 0 1-.566.577z"/>
    </g>
</svg>
