<svg xmlns="http://www.w3.org/2000/svg" width="40" height="40" viewBox="0 0 40 40">
    <g fill="#000" fill-rule="nonzero">
        <path d="M7.143 21.905a7.22 7.22 0 0 0-4.45 1.536.578.578 0 0 0-.093.818.594.594 0 0 0 .828.093 5.945 5.945 0 0 1 3.715-1.283c3.288 0 5.964 2.644 5.964 5.893 0 4.376-4.623 8.576-5.965 9.702-1.342-1.126-5.964-5.32-5.964-9.702 0-1.06.288-2.1.833-3.005a.578.578 0 0 0-.206-.798.593.593 0 0 0-.807.203 6.986 6.986 0 0 0-.998 3.6c0 5.666 6.505 10.705 6.782 10.916a.593.593 0 0 0 .722 0c.276-.211 6.782-5.25 6.782-10.916 0-3.891-3.205-7.057-7.143-7.057z"/>
        <path d="M6.667 25.714a2.86 2.86 0 0 0-2.857 2.857 2.86 2.86 0 0 0 2.857 2.858 2.86 2.86 0 0 0 2.857-2.858 2.86 2.86 0 0 0-2.857-2.857zm0 4.663c-.996 0-1.806-.81-1.806-1.806 0-.995.81-1.805 1.806-1.805.995 0 1.806.81 1.806 1.805 0 .996-.81 1.806-1.806 1.806zM33.333 8.571c-3.676 0-6.666 3.003-6.666 6.693 0 2.271 1.07 4.706 3.179 7.235a22.584 22.584 0 0 0 3.134 3.094.575.575 0 0 0 .707 0c.08-.062 1.965-1.537 3.664-3.758a.581.581 0 0 0-.106-.813.576.576 0 0 0-.81.107 22.23 22.23 0 0 1-3.101 3.255c-1.268-1.085-5.512-5.023-5.512-9.12 0-3.051 2.472-5.533 5.511-5.533 3.04 0 5.512 2.482 5.512 5.533 0 1.243-.394 2.587-1.172 3.992a.58.58 0 0 0 .224.788c.279.155.63.055.785-.225.875-1.58 1.318-3.112 1.318-4.556 0-3.69-2.99-6.692-6.667-6.692z"/>
        <path d="M33.333 12.381a2.86 2.86 0 0 0-2.857 2.857 2.86 2.86 0 0 0 2.857 2.857 2.86 2.86 0 0 0 2.857-2.857 2.86 2.86 0 0 0-2.857-2.857zm0 4.617c-.97 0-1.76-.79-1.76-1.76s.79-1.76 1.76-1.76 1.76.79 1.76 1.76-.79 1.76-1.76 1.76zM8.571 3.81a2.86 2.86 0 0 0-2.857 2.857 2.86 2.86 0 0 0 2.857 2.857 2.86 2.86 0 0 0 2.858-2.857A2.86 2.86 0 0 0 8.57 3.81zm0 4.531a1.676 1.676 0 0 1-1.674-1.674c0-.923.751-1.674 1.674-1.674.923 0 1.674.75 1.674 1.674 0 .923-.75 1.674-1.674 1.674z"/>
        <path d="M9.048 0c-3.414 0-6.19 2.84-6.19 6.332 0 1.093.264 2.246.788 3.426.133.3.479.434.772.297a.603.603 0 0 0 .29-.79c-.453-1.024-.683-2.01-.683-2.933 0-2.833 2.253-5.138 5.023-5.138 2.77 0 5.023 2.305 5.023 5.138 0 3.786-3.822 7.433-5.024 8.487-.648-.567-2.057-1.886-3.215-3.573a.576.576 0 0 0-.813-.146.606.606 0 0 0-.142.832c1.656 2.413 3.726 4.065 3.813 4.134a.575.575 0 0 0 .715 0 21.038 21.038 0 0 0 2.894-2.911c1.95-2.383 2.94-4.679 2.94-6.823C15.237 2.841 12.46 0 9.047 0zM17.74 18.328l-.721-.201c-.3-.083-.648.004-.779.194-.13.19.006.411.305.494l.722.201a.886.886 0 0 0 .237.032c.227 0 .444-.085.542-.226.13-.19-.006-.411-.305-.494zM28.217 23.09l-.722-.201c-.3-.083-.648.003-.779.193-.13.19.006.412.305.495l.722.201a.886.886 0 0 0 .237.032c.228 0 .445-.085.542-.226.13-.19-.006-.411-.305-.495zM13.931 17.375l-.722-.2c-.3-.084-.648.003-.778.193-.131.19.005.412.304.495l.723.2a.885.885 0 0 0 .236.032c.228 0 .445-.084.542-.225.13-.19-.006-.412-.305-.495zM11.074 16.423l-.722-.201c-.3-.083-.648.004-.779.194-.13.19.006.412.305.495l.723.2a.885.885 0 0 0 .236.032c.228 0 .445-.084.542-.225.13-.19-.006-.412-.305-.495zM31.074 24.042l-.722-.2c-.3-.084-.648.003-.779.193-.13.19.006.412.305.495l.723.2a.885.885 0 0 0 .236.032c.228 0 .445-.084.542-.225.13-.19-.006-.412-.305-.495zM25.36 22.137l-.722-.2c-.3-.084-.648.003-.779.193-.13.19.006.412.305.495l.722.2a.885.885 0 0 0 .237.032c.228 0 .445-.084.542-.225.13-.19-.006-.412-.305-.495zM22.503 21.185l-.723-.201c-.299-.083-.647.004-.778.194-.13.19.006.411.305.495l.722.2a.885.885 0 0 0 .237.032c.227 0 .444-.084.542-.226.13-.19-.006-.411-.305-.494zM19.645 19.28l-.722-.2c-.299-.084-.647.003-.778.193-.13.19.006.412.305.495l.722.2a.885.885 0 0 0 .236.032c.228 0 .445-.084.542-.225.131-.19-.005-.412-.305-.495zM11.358 38.48c-.156-.354-.519-.488-.811-.3l-.706.455c-.292.188-.402.627-.247.98.108.246.316.385.53.385a.516.516 0 0 0 .281-.085l.706-.455c.292-.188.403-.627.247-.98zM13.263 36.575c-.156-.354-.519-.487-.811-.3l-.706.455c-.292.189-.403.628-.247.981.108.245.315.384.53.384a.517.517 0 0 0 .281-.085l.706-.455c.292-.188.402-.627.247-.98zM16.12 35.622c-.156-.353-.519-.487-.811-.299l-.706.455c-.292.188-.402.627-.247.98.108.245.315.385.53.385a.517.517 0 0 0 .281-.085l.706-.455c.292-.188.403-.627.247-.98zM29.453 28.003c-.155-.353-.518-.487-.81-.299l-.706.455c-.292.188-.403.627-.247.98.107.245.315.385.53.385a.517.517 0 0 0 .28-.085l.706-.455c.292-.188.403-.628.247-.98zM32.31 26.098c-.155-.353-.518-.487-.81-.298l-.706.454c-.292.188-.403.627-.247.98.108.246.315.385.53.385a.516.516 0 0 0 .28-.085l.706-.455c.292-.188.403-.627.247-.98zM27.549 29.908c-.156-.353-.52-.487-.812-.299l-.705.455c-.292.188-.403.627-.247.98.108.245.315.385.53.385a.515.515 0 0 0 .28-.086l.706-.454c.293-.189.403-.628.248-.98zM18.977 34.67c-.156-.353-.519-.487-.811-.299l-.705.455c-.293.188-.403.627-.248.98.108.245.316.384.53.384a.517.517 0 0 0 .281-.085l.706-.454c.292-.189.403-.628.247-.981zM24.691 30.86c-.155-.353-.519-.487-.81-.298l-.706.454c-.292.189-.403.627-.247.98.108.245.315.385.53.385a.515.515 0 0 0 .28-.086l.706-.454c.292-.188.403-.627.247-.98zM21.834 32.765c-.156-.353-.519-.487-.81-.299l-.706.455c-.293.188-.403.627-.247.98.107.245.315.385.53.385a.515.515 0 0 0 .28-.086l.706-.454c.292-.188.403-.627.247-.98z"/>
    </g>
</svg>
