<?xml version="1.0" encoding="UTF-8" standalone="no"?>
<svg width="65px" height="40px" viewBox="0 0 65 40" version="1.1" xmlns="http://www.w3.org/2000/svg" xmlns:xlink="http://www.w3.org/1999/xlink">
    <!-- Generator: Sketch 50.2 (55047) - http://www.bohemiancoding.com/sketch -->
    <title>question</title>
    <desc>Created with Sketch.</desc>
    <defs></defs>
    <g id="Page-1" stroke="none" stroke-width="1" fill="none" fill-rule="evenodd">
        <g id="Home-2" transform="translate(-93.000000, -2207.000000)" fill="#000000" fill-rule="nonzero">
            <g id="question" transform="translate(93.000000, 2207.000000)">
                <path d="M61.9635352,8.07705128 C59.0662109,3.70320513 54.4375,0.816282051 49.2639062,0.156666667 C48.741875,0.0891025641 48.2659277,0.463333333 48.2000391,0.990128205 C48.1341504,1.51692308 48.5037109,1.99794872 49.0253613,2.06448718 C53.6514062,2.65461538 57.7902051,5.23576923 60.3806836,9.14615385 C64.2794141,15.0342308 63.9732031,22.7160256 59.6187109,28.2615385 C59.4760156,28.4433333 59.4031445,28.6708974 59.4135547,28.9025641 L59.7991113,37.4751282 L52.1009277,33.8415385 C51.8927246,33.7432051 51.6564648,33.7242308 51.4356934,33.7883333 C45.6344434,35.4652564 39.2541602,33.6511538 35.1788379,29.1644872 C34.8824023,28.8401282 34.5932031,28.4935897 34.3174609,28.1324359 C34.0861523,27.8310256 33.8614453,27.5167949 33.6496875,27.1987179 C33.6385156,27.1817949 33.6273437,27.1639744 33.6161719,27.1469231 C34.9470215,24.7832051 35.741748,22.1428205 35.9262109,19.4348718 C35.9622656,18.905 35.5662988,18.4460256 35.0416016,18.4096154 C34.5171582,18.3746154 34.0624121,18.7730769 34.0263574,19.3029487 C33.8350391,22.1135897 32.9091699,24.844359 31.348916,27.2 C30.0334277,29.1864103 28.3466016,30.8184615 26.3351562,32.050641 C25.8854883,32.3260256 25.7422852,32.9174359 26.0149805,33.3714103 C26.1941113,33.6696154 26.5080664,33.834359 26.8298926,33.834359 C26.9981055,33.834359 27.1684766,33.7892308 27.3228516,33.6947436 C29.3598145,32.4467949 31.0979297,30.8317949 32.5005078,28.8897436 C32.602959,29.0311538 32.705918,29.1720513 32.8109082,29.3087179 C33.1191504,29.7124359 33.4449121,30.1026923 33.7774023,30.4664103 C36.0408496,32.9583333 38.9492187,34.7564103 42.1879199,35.6665385 C45.2797363,36.5352564 48.5302441,36.5571795 51.6119043,35.7337179 L60.4181348,39.8902564 C60.5464844,39.9507692 60.6841016,39.980641 60.8212109,39.980641 C61.0066895,39.980641 61.1914062,39.9258974 61.3506055,39.8183333 C61.6276172,39.6312821 61.7875781,39.3115385 61.7724707,38.9755128 L61.3314355,29.1692308 C63.5419434,26.2373077 64.8011914,22.7411538 64.978291,19.0335897 C65.165293,15.1266667 64.1227539,11.3380769 61.9635352,8.07705128 Z" id="Shape"></path>
                <path d="M46.3410645,0.959358974 C46.2914258,0.430769231 45.8258887,0.0430769231 45.3033496,0.0928205128 C42.3585449,0.37474359 39.4935938,1.40730769 37.0185156,3.07884615 C35.8959961,3.83641026 34.8579004,4.72128205 33.9334277,5.70871795 C33.5444434,6.12384615 33.1670117,6.56782051 32.8106543,7.02948718 C32.7026172,7.17 32.5969922,7.31205128 32.4935254,7.45512821 C31.2642383,5.75641026 29.742959,4.26807692 27.9814844,3.07833333 C19.7394336,-2.48846154 8.5494043,-0.245897436 3.03671875,8.0774359 C0.877373047,11.3380769 -0.165419922,15.1266667 0.021328125,19.0337179 C0.198554688,22.7411538 1.45792969,26.2371795 3.66856445,29.1692308 L3.22727539,38.975641 C3.21216797,39.3117949 3.37212891,39.6315385 3.64914063,39.8185897 C3.80833984,39.9261538 3.99292969,39.9808974 4.17853516,39.9808974 C4.31577148,39.9808974 4.45338867,39.9510256 4.58161133,39.8905128 L13.3879688,35.7337179 C16.7033496,36.6197436 20.1827539,36.5283333 23.4745215,35.4648718 C23.9753516,35.3030769 24.2514746,34.7619231 24.0912598,34.2560256 C23.9310449,33.7502564 23.3950488,33.4714103 22.8942188,33.6332051 C19.8468359,34.6179487 16.6205762,34.6715385 13.5643066,33.7882051 C13.3436621,33.724359 13.1072754,33.7432051 12.8991992,33.8415385 L5.20088867,37.4752564 L5.58657227,28.9026923 C5.59698242,28.6708974 5.52411133,28.4432051 5.38141602,28.2615385 C1.02666992,22.7157692 0.720458984,15.0341026 4.61969727,9.14666667 C9.54852539,1.70474359 19.5535742,-0.300384615 26.9229492,4.67679487 C30.6632422,7.20294872 33.1984961,11.2302564 33.878584,15.7260256 C33.9579297,16.2510256 34.4431445,16.6111538 34.9636523,16.5312821 C35.4835254,16.4510256 35.8405176,15.9605128 35.7610449,15.4355128 C35.4262695,13.2224359 34.6889258,11.1108974 33.6121094,9.19923077 C33.8313574,8.86435897 34.065459,8.53294872 34.3135254,8.21038462 C34.6317969,7.79820513 34.9694922,7.40102564 35.3170898,7.02987179 C36.1439355,6.14666667 37.0724707,5.35525641 38.0769238,4.6774359 C40.2907324,3.1824359 42.8517578,2.25910256 45.4829883,2.00717949 C46.006543,1.95730769 46.3907031,1.48807692 46.3410645,0.959358974 Z" id="Shape"></path>
                <path d="M26.2890723,25.6601282 L23.8216113,23.1683333 C24.9076953,21.7789744 25.5583301,20.0270513 25.5583301,18.1237179 C25.5583301,13.6252564 21.9343262,9.96551282 17.4797949,9.96551282 C13.0251367,9.96551282 9.40125977,13.6253846 9.40125977,18.1237179 C9.40125977,22.6221795 13.0253906,26.2819231 17.4797949,26.2819231 C19.364668,26.2819231 21.0993555,25.6248718 22.4751465,24.5282051 L24.9426074,27.02 C25.1284668,27.2076923 25.3722168,27.3015385 25.6158398,27.3015385 C25.8594629,27.3015385 26.1032129,27.2076923 26.2890723,27.02 C26.660918,26.6444872 26.660918,26.0357692 26.2890723,25.6601282 Z M22.4642285,21.7975641 L18.1530273,17.4438462 C17.7813086,17.0684615 17.1784082,17.0684615 16.8065625,17.4438462 C16.4347168,17.8194872 16.4347168,18.4282051 16.8065625,18.8037179 L21.1177637,23.1574359 C20.0964258,23.9120513 18.839082,24.3589744 17.479668,24.3589744 C14.075166,24.3589744 11.3053027,21.5619231 11.3053027,18.1237179 C11.3053027,14.6855128 14.075166,11.8884615 17.479668,11.8884615 C20.8841699,11.8884615 23.6540332,14.6855128 23.6540332,18.1237179 C23.6540332,19.4965385 23.2114746,20.7664103 22.4642285,21.7975641 Z" id="Shape"></path>
                <path d="M53.7546191,24.6907692 L51.3949414,18.9655128 C51.3936719,18.9625641 51.3925293,18.9594872 51.3912598,18.9565385 L47.8223535,10.2974359 C47.6745801,9.93884615 47.3277441,9.70538462 46.9433301,9.70538462 C46.558916,9.70538462 46.2119531,9.93884615 46.0641797,10.2974359 L42.4956543,18.955641 C42.4941309,18.959359 42.4926074,18.9630769 42.491084,18.9667949 L40.1319141,24.6907692 C39.9299316,25.1810256 40.1595898,25.7438462 40.6450586,25.9479487 C41.1305273,26.1520513 41.6878516,25.92 41.8899609,25.4297436 L44.0057617,20.2962821 L49.8807715,20.2962821 L51.9965723,25.4297436 C52.148916,25.7992308 52.5029883,26.0220513 52.8759766,26.0220513 C52.9978516,26.0220513 53.1218848,25.9982051 53.2414746,25.9479487 C53.7269434,25.7438462 53.9567285,25.1811538 53.7546191,24.6907692 Z M44.7982031,18.3733333 L46.9430762,13.1691026 L49.0880762,18.3733333 L44.7982031,18.3733333 Z" id="Shape"></path>
            </g>
        </g>
    </g>
</svg>